<?xml version="1.0" encoding="UTF-8"?>
<svg xmlns="http://www.w3.org/2000/svg" xmlns:xlink="http://www.w3.org/1999/xlink" width="25px" height="28px" viewBox="0 0 25 28" version="1.1">
    
    <title>small-logo</title>
    <desc>Created with Sketch.</desc>
    <defs/>
    <g id="Page-1" stroke="none" stroke-width="1" fill="none" fill-rule="evenodd">
        <g id="footer-01" transform="translate(-215.000000, -190.000000)" fill="#EC5447">
            <g id="small-logo" transform="translate(215.000000, 190.000000)">
                <path d="M10.1385132,18.4093778 C9.72822934,18.4093778 9.35260049,18.1437667 9.23867701,17.7393222 C9.1104135,17.2816 9.04508674,16.8075444 9.04508674,16.3292111 L9.04508674,11.9495444 C9.04508674,10.2298778 10.478292,8.83104444 12.2397244,8.83104444 C13.4729661,8.83104444 14.6090143,9.53571111 15.1332217,10.6261556 C15.3523053,11.0819333 15.151545,11.6252111 14.685096,11.8387111 C14.2166554,12.0506556 13.6617763,11.8566 13.443091,11.4008222 C13.2252024,10.9466 12.7527784,10.6533778 12.2397244,10.6533778 C11.5075867,10.6533778 10.9116793,11.2351556 10.9116793,11.9495444 L10.9116793,16.3292111 C10.9116793,16.6446 10.954301,16.9572667 11.0391461,17.2567111 C11.1753763,17.7424333 10.8829992,18.2433222 10.3858786,18.3767111 C10.3034234,18.3988778 10.2201717,18.4093778 10.1385132,18.4093778" id="Fill-1"/>
                <path d="M14.5011853,21.65555 C13.6379958,21.65555 12.7771963,21.4533278 12.0127936,21.0702722 C11.5543113,20.8404389 11.3730694,20.2917167 11.6080864,19.8437167 C11.8435017,19.3961056 12.4051525,19.2179944 12.8644314,19.4486056 C13.3739004,19.7037167 13.9243978,19.8332167 14.5011853,19.8332167 C16.480108,19.8332167 18.0901735,18.2613278 18.0901735,16.3293278 L18.0901735,11.9496611 C18.0901735,8.80043889 15.4659499,6.23766111 12.2394456,6.23766111 C11.7240015,6.23766111 11.3061493,5.82971667 11.3061493,5.32649444 C11.3061493,4.82288333 11.7240015,4.41493889 12.2394456,4.41493889 C16.4948463,4.41493889 19.956766,7.79516111 19.956766,11.9496611 L19.956766,16.3293278 C19.956766,19.2666056 17.509801,21.65555 14.5011853,21.65555" id="Fill-3"/>
                <path d="M14.5011853,26.0706833 C8.99899951,26.0706833 4.52292179,21.70035 4.52292179,16.3294056 L4.52292179,11.9497389 C4.52292179,9.28429444 5.98759544,6.79151667 8.34573196,5.44323889 C8.7906709,5.18890556 9.36307667,5.33435 9.62279036,5.76912778 C9.88369905,6.20351667 9.73432384,6.76157222 9.28938491,7.01629444 C7.50086582,8.03868333 6.38951432,9.92946111 6.38951432,11.9497389 L6.38951432,16.3294056 C6.38951432,20.69585 10.0282942,24.24835 14.5011853,24.24835 C15.8188737,24.24835 17.0744221,23.9500722 18.233972,23.3620722 C18.689666,23.1306833 19.2545034,23.3037389 19.4923087,23.7505722 C19.730114,24.1970167 19.5516605,24.7472944 19.0943732,24.9794611 C17.6870596,25.6934611 16.0989025,26.0706833 14.5011853,26.0706833" id="Fill-5"/>
                <path d="M21.4823051,22.8543778 C21.2735781,22.8543778 21.0628595,22.7859333 20.8895843,22.6463222 C20.4912504,22.3262667 20.4350853,21.7514889 20.7625158,21.3637667 C21.9555257,19.9513222 22.6123783,18.1636 22.6123783,16.3292111 L22.6123783,11.9495444 C22.6123783,7.74954444 19.9072929,3.93726667 15.8809342,2.46376667 C15.8793408,2.46376667 14.8424778,2.12698889 14.0418267,1.98621111 C13.2017405,1.83804444 12.2357809,1.82248889 12.2258225,1.82248889 C6.52008816,1.82248889 1.86675186,6.36548889 1.86675186,11.9495444 L1.86675186,16.3292111 C1.86675186,16.8324333 1.44889963,17.2403778 0.933455597,17.2403778 C0.417613232,17.2403778 0.000159333549,16.8324333 0.000159333549,16.3292111 L0.000159333549,11.9495444 C0.000159333549,5.3606 5.49079343,0.000155555555 12.2397642,0.000155555555 C12.299116,0.000544444444 13.3833808,0.0176555556 14.3736388,0.192266667 C15.3176901,0.358711111 16.4577216,0.730488889 16.5051233,0.746822222 C21.2867231,2.49604444 24.4793691,6.99432222 24.4793691,11.9495444 L24.4793691,16.3292111 C24.4793691,18.5859333 23.6707514,20.7851 22.2032894,22.5226556 C22.0180641,22.7412111 21.7511804,22.8543778 21.4823051,22.8543778" id="Fill-7"/>
                <path d="M6.58521575,27.9998833 C6.39640549,27.9998833 6.20560357,27.9442722 6.04069334,27.8283833 C3.43479315,25.9978833 1.50048386,23.3421611 0.593477637,20.3508278 C0.447289105,19.8678278 0.729707821,19.3611056 1.22404016,19.2187722 C1.71916916,19.0756611 2.23740153,19.3509944 2.38359006,19.8339944 C3.17348613,22.4391611 4.85923508,24.7538278 7.13093315,26.34905 C7.54958205,26.64305 7.64478385,27.2123833 7.34364344,27.6211056 C7.16120653,27.86805 6.87560114,27.9998833 6.58521575,27.9998833" id="Fill-9"/>
            </g>
        </g>
    </g>
</svg>
